<svg width="38" height="37" viewBox="0 0 38 37" fill="none" xmlns="http://www.w3.org/2000/svg">
<path d="M19.7675 0.00103059C9.26132 -0.107071 1.2415 8.30461 0.984757 17.9797C0.714502 28.2224 8.92349 36.9516 19.4702 36.9921C29.5912 37.0597 37.8745 28.7967 37.9691 18.554C38.0637 8.50054 29.7872 0.0956197 19.7675 0.00103059ZM17.0582 27.2089C17.0446 24.5942 17.0446 21.966 17.0446 19.3513C17.0446 19.081 17.0446 18.8108 17.0446 18.4865C16.8284 18.4729 16.7203 18.4594 16.6122 18.4594C15.1326 18.4324 15.1191 18.4324 15.1326 16.9933C15.1326 16.4393 14.9704 15.6758 15.2542 15.365C15.538 15.0677 16.3014 15.2164 16.8555 15.1623C16.8825 15.1623 16.896 15.1488 17.0446 15.1083C17.0446 14.284 17.0176 13.4124 17.0446 12.5476C17.0852 11.0409 17.8014 9.97343 19.1864 9.39238C19.5513 9.23023 19.9702 9.14915 20.3688 9.13564C21.3417 9.0951 22.3079 9.0951 23.2808 9.13564C23.47 9.13564 23.7943 9.37887 23.8078 9.54102C23.8618 10.4599 23.8348 11.3855 23.8348 12.4125C23.1997 12.4125 22.6322 12.4125 22.0444 12.4125C21.166 12.4125 20.889 12.6962 20.8755 13.5881C20.8755 14.0745 20.8755 14.5745 20.8755 15.1893C21.6322 15.1893 22.3552 15.2029 23.0578 15.1758C23.6254 15.1488 23.8956 15.2704 23.747 15.9325C23.6118 16.5676 23.5983 17.2365 23.5848 17.8851C23.5848 18.3311 23.3956 18.4662 22.9767 18.4527C22.3011 18.4392 21.6322 18.4527 20.9025 18.4527C20.9025 21.5944 20.9025 24.6618 20.9025 27.8305C19.6729 27.8305 18.477 27.844 17.3014 27.8035C17.2068 27.79 17.0582 27.4116 17.0582 27.2089Z" fill="white"/>
</svg>
