<svg width="38" height="37" viewBox="0 0 38 37" fill="none" xmlns="http://www.w3.org/2000/svg">
<path d="M19.6416 15.3717C18.0673 15.3717 16.6485 16.7838 16.635 18.3512C16.6214 19.9525 17.9795 21.3173 19.601 21.3443C21.2158 21.3578 22.5941 19.9998 22.5941 18.3918C22.5941 16.777 21.2293 15.3717 19.6416 15.3717Z" fill="white"/>
<path fill-rule="evenodd" clip-rule="evenodd" d="M27.1614 22.2632C27.1614 19.7431 27.1614 17.2094 27.1479 14.6758C27.1479 12.5746 25.4925 10.8719 23.3913 10.8449C20.8036 10.8044 18.2024 10.8179 15.6148 10.8449C13.6081 10.8719 11.8987 12.4597 11.8447 14.4596C11.7636 17.1419 11.7636 19.8241 11.8447 22.5064C11.8987 24.6076 13.6216 26.1346 15.7228 26.1481H23.2494C25.4723 26.1548 27.1479 24.486 27.1614 22.2632ZM24.5332 12.3043C25.1817 12.3043 25.6682 12.7772 25.6547 13.3853C25.6682 13.9799 25.1547 14.5069 24.5466 14.5069C23.9521 14.5204 23.4251 14.0069 23.4116 13.4123C23.4116 12.8245 23.9251 12.3043 24.5332 12.3043ZM19.574 23.0402C16.9863 22.9996 14.8986 20.8579 14.9526 18.2837C15.0202 15.7095 17.1214 13.6758 19.6956 13.7164C22.2968 13.7569 24.2899 15.8176 24.2629 18.4323C24.2358 21.0065 22.1346 23.0807 19.574 23.0402Z" fill="white"/>
<path fill-rule="evenodd" clip-rule="evenodd" d="M18.9389 0.00770961C29.141 -0.222009 37.6811 7.64916 37.9783 17.9188C38.2756 28.2966 30.1139 36.8164 19.9253 36.9921C9.57456 37.1677 1.18314 29.0533 0.993977 18.6891C0.818305 8.74369 9.03405 0.250937 18.9389 0.00770961ZM9.95293 22.4929C9.99344 25.1887 11.9055 27.5331 14.5608 27.8845C15.6761 28.0338 16.814 27.9962 17.95 27.9586C18.4587 27.9418 18.9669 27.925 19.4726 27.925V28.0466C19.9161 28.0466 20.3602 28.0481 20.8046 28.0496C21.6942 28.0526 22.5848 28.0556 23.4724 28.0466C26.506 28.0061 29.0261 25.4995 29.0532 22.4659C29.0667 19.8241 29.0802 17.1824 29.0532 14.5542C29.0126 11.4665 26.533 8.97341 23.4454 8.94638C20.8307 8.91936 18.216 8.91936 15.6012 8.94638C12.5001 8.97341 10.007 11.4125 9.95293 14.5136C9.91238 17.1689 9.91238 19.8376 9.95293 22.4929Z" fill="white"/>
</svg>
