<svg width="38" height="37" viewBox="0 0 38 37" fill="none" xmlns="http://www.w3.org/2000/svg">
<path d="M19.3306 0.000854492C9.24338 0.000854492 0.973582 8.31794 0.987094 18.466C0.878993 28.6951 9.45958 37.1203 19.6887 36.9987C29.7354 36.8771 37.9782 28.6546 37.9782 18.5201C37.9647 8.20984 29.7152 0.000854492 19.3306 0.000854492ZM27.9855 25.0805C26.7897 25.0805 25.6681 25.0805 24.4452 25.0805C24.4452 24.8508 24.4452 24.6211 24.4452 24.3778C24.4452 22.655 24.4587 20.9456 24.4452 19.2227C24.4452 18.8714 24.4047 18.5065 24.3371 18.1485C24.1479 17.0742 23.648 16.6148 22.7088 16.5877C21.5805 16.5607 20.9049 17.0201 20.6752 18.0674C20.5535 18.6079 20.5265 19.1957 20.5265 19.7497C20.513 21.5131 20.5265 23.263 20.5265 25.0805C19.3441 25.0805 18.2091 25.0805 17.0132 25.0805C17.0132 21.324 17.0132 17.5674 17.0132 13.7703C18.1145 13.7703 19.1955 13.7703 20.3644 13.7703C20.3644 14.2163 20.3644 14.6351 20.3644 15.25C21.3575 13.9325 22.5467 13.4325 23.9858 13.4595C26.2356 13.5001 27.6612 14.7095 27.8639 16.9593C28.0126 18.5471 27.972 20.1619 27.9855 21.7496C27.9991 22.8441 27.9855 23.9454 27.9855 25.0805ZM12.9729 8.11525C14.1553 8.10174 15.0336 8.98007 15.0471 10.1624C15.0471 11.2772 14.1417 12.2096 13.0405 12.2231C11.8986 12.2366 10.9392 11.311 10.9257 10.1895C10.9122 9.04763 11.8176 8.12877 12.9729 8.11525ZM14.7228 13.7703C14.7228 17.5404 14.7228 21.2834 14.7228 25.0805C13.5945 25.0805 12.4594 25.0805 11.2635 25.0805C11.2635 21.3375 11.2635 17.5809 11.2635 13.7703C12.4459 13.7703 13.5674 13.7703 14.7228 13.7703Z" fill="white"/>
</svg>
