<svg width="38" height="37" viewBox="0 0 38 37" fill="none" xmlns="http://www.w3.org/2000/svg">
<path d="M19.4761 0.000854492C9.32126 0.0549054 1.03794 8.07472 0.970378 18.4728C0.902814 28.6073 9.25368 36.9852 19.3274 36.9987C29.6174 37.0122 37.9683 28.7762 37.9683 18.6214C37.975 8.31795 29.7052 0.000854492 19.4761 0.000854492ZM10.9225 25.2967C10.8414 25.2562 10.7874 25.1886 10.6117 25.0264C12.6994 25.1075 14.5304 24.7292 16.2938 23.5063C14.5845 23.1009 13.2872 22.4252 12.713 20.6889C13.1859 20.6889 13.5643 20.6889 13.9629 20.6889C12.3616 19.8511 11.4292 18.6417 11.3211 16.7296C11.8346 16.8783 12.2535 16.9999 12.8008 17.162C11.1995 14.9932 10.9158 13.2839 11.9765 11.9461C14.0777 14.3176 16.7465 15.5608 19.922 15.9864C19.922 15.7702 19.9355 15.5946 19.922 15.4324C19.8409 13.723 20.5976 12.4528 22.0773 11.6759C23.584 10.8786 25.0703 11.0678 26.4554 12.0948C26.6581 12.2569 27.0365 12.3245 27.2797 12.2569C27.9013 12.0812 28.5026 11.811 29.1107 11.5813C29.1647 11.6218 29.2188 11.6623 29.2728 11.7029C28.8945 12.2974 28.5161 12.8785 28.0837 13.5474C28.6377 13.3987 29.1377 13.2501 29.6579 13.1015C29.6985 13.142 29.739 13.196 29.7795 13.2501C29.2931 13.7501 28.8336 14.2906 28.2999 14.7568C27.9756 15.054 27.8405 15.3378 27.8134 15.7837C27.6648 18.9795 26.827 21.9118 24.3407 24.1549C20.9355 27.2493 14.8074 27.7763 10.9225 25.2967Z" fill="white"/>
</svg>
