<svg width="37" height="37" viewBox="0 0 37 37" fill="none" xmlns="http://www.w3.org/2000/svg">
<path d="M23.8567 12.9253C21.0258 10.27 16.9315 10.0268 13.9451 12.3443C10.871 14.7292 10.094 18.7831 12.0196 22.2558C12.1547 22.4856 12.1682 22.8504 12.1142 23.1207C11.9655 23.8639 11.7493 24.6003 11.5331 25.4516C12.0871 25.3165 12.479 25.2489 12.8641 25.1138C13.783 24.7625 14.587 24.8435 15.5329 25.303C18.83 26.9042 22.8365 25.6678 24.9378 22.5261C26.9376 19.5533 26.4579 15.3508 23.8567 12.9253ZM22.9649 21.3708C22.5595 22.2085 21.796 22.4991 20.8772 22.5802C19.4921 22.391 18.2219 21.8234 17.1071 20.9384C15.695 19.81 14.5194 18.4858 14.087 16.6548C13.8843 15.79 14.1411 14.9995 14.8032 14.3914C15.3843 13.8644 16.0666 13.9725 16.4585 14.6482C16.9585 15.513 17.4855 16.4116 16.5261 17.344C16.4315 17.4386 16.4585 17.7899 16.5531 17.9385C17.2017 19.0128 18.1138 19.7965 19.2489 20.3235C19.6137 20.4857 19.8705 20.4316 20.0867 20.0668C20.3434 19.6344 20.6542 19.1074 21.2285 19.3371C21.8906 19.6209 22.5055 20.0533 23.0595 20.5059C23.1811 20.6005 23.0865 21.114 22.9649 21.3708Z" fill="white"/>
<path d="M18.4516 0.000382693C8.2698 -0.01313 0 8.28369 0 18.5128C0 28.6271 8.21574 36.8834 18.1881 36.9983C28.6808 37.1199 37.0046 28.6204 36.9911 18.4993C36.9776 8.28369 28.7213 0.0138954 18.4516 0.000382693ZM26.0255 24.0936C23.2216 27.6474 18.6814 28.7285 14.5329 26.8434C14.2762 26.7353 13.9114 26.7083 13.6411 26.7759C12.1344 27.1542 10.6345 27.5596 9.00624 27.9988C9.43865 26.384 9.84403 24.8908 10.2291 23.3909C10.2832 23.1342 10.2832 22.8099 10.1751 22.5802C7.39822 16.7359 10.8102 10.1484 17.195 9.07419C20.911 8.4526 24.7621 10.3241 26.762 13.7226C28.6267 16.9116 28.3295 21.1816 26.0255 24.0936Z" fill="white"/>
</svg>
